<mxfile host="Electron" agent="Mozilla/5.0 (Macintosh; Intel Mac OS X 10_15_7) AppleWebKit/537.36 (KHTML, like Gecko) draw.io/26.2.2 Chrome/134.0.6998.178 Electron/35.1.2 Safari/537.36" version="26.2.2">
  <diagram name="Página-1" id="zVesnICo3FhEjipXHg-W">
    <mxGraphModel dx="935" dy="935" grid="1" gridSize="10" guides="1" tooltips="1" connect="1" arrows="1" fold="1" page="1" pageScale="1" pageWidth="827" pageHeight="1169" math="0" shadow="0">
      <root>
        <mxCell id="0" />
        <mxCell id="1" parent="0" />
        <mxCell id="4H-aWXCLzXS7zS83u2Xb-1" value="CURSOS" style="rounded=0;whiteSpace=wrap;html=1;" vertex="1" parent="1">
          <mxGeometry x="250" y="300" width="120" height="60" as="geometry" />
        </mxCell>
        <mxCell id="4H-aWXCLzXS7zS83u2Xb-2" value="ASIGNATURAS" style="rounded=0;whiteSpace=wrap;html=1;" vertex="1" parent="1">
          <mxGeometry x="460" y="120" width="120" height="60" as="geometry" />
        </mxCell>
        <mxCell id="4H-aWXCLzXS7zS83u2Xb-3" value="PROFESORES" style="rounded=0;whiteSpace=wrap;html=1;" vertex="1" parent="1">
          <mxGeometry x="40" y="120" width="120" height="60" as="geometry" />
        </mxCell>
        <mxCell id="4H-aWXCLzXS7zS83u2Xb-4" value="Imparte" style="rhombus;whiteSpace=wrap;html=1;" vertex="1" parent="1">
          <mxGeometry x="270" y="110" width="80" height="80" as="geometry" />
        </mxCell>
        <mxCell id="4H-aWXCLzXS7zS83u2Xb-5" value="" style="endArrow=none;html=1;rounded=0;entryX=0;entryY=0.5;entryDx=0;entryDy=0;" edge="1" parent="1" target="4H-aWXCLzXS7zS83u2Xb-4">
          <mxGeometry width="50" height="50" relative="1" as="geometry">
            <mxPoint x="160" y="150" as="sourcePoint" />
            <mxPoint x="210" y="100" as="targetPoint" />
          </mxGeometry>
        </mxCell>
        <mxCell id="4H-aWXCLzXS7zS83u2Xb-6" value="" style="endArrow=none;html=1;rounded=0;entryX=0;entryY=0.5;entryDx=0;entryDy=0;" edge="1" parent="1">
          <mxGeometry width="50" height="50" relative="1" as="geometry">
            <mxPoint x="350" y="149.5" as="sourcePoint" />
            <mxPoint x="460" y="149.5" as="targetPoint" />
          </mxGeometry>
        </mxCell>
        <mxCell id="4H-aWXCLzXS7zS83u2Xb-7" value="" style="endArrow=none;html=1;rounded=0;exitX=0.5;exitY=0;exitDx=0;exitDy=0;" edge="1" parent="1" source="4H-aWXCLzXS7zS83u2Xb-1">
          <mxGeometry width="50" height="50" relative="1" as="geometry">
            <mxPoint x="260" y="240" as="sourcePoint" />
            <mxPoint x="310" y="190" as="targetPoint" />
          </mxGeometry>
        </mxCell>
        <mxCell id="4H-aWXCLzXS7zS83u2Xb-8" value="(0,n)" style="rounded=0;whiteSpace=wrap;html=1;fillColor=#a20025;fontColor=#ffffff;strokeColor=#6F0000;" vertex="1" parent="1">
          <mxGeometry x="260" y="270" width="40" height="20" as="geometry" />
        </mxCell>
        <mxCell id="4H-aWXCLzXS7zS83u2Xb-10" value="(0,n)" style="rounded=0;whiteSpace=wrap;html=1;fillColor=#a20025;fontColor=#ffffff;strokeColor=#6F0000;" vertex="1" parent="1">
          <mxGeometry x="414" y="160" width="40" height="20" as="geometry" />
        </mxCell>
        <mxCell id="4H-aWXCLzXS7zS83u2Xb-12" value="(0,n)" style="rounded=0;whiteSpace=wrap;html=1;fillColor=#a20025;fontColor=#ffffff;strokeColor=#6F0000;" vertex="1" parent="1">
          <mxGeometry x="170" y="160" width="40" height="20" as="geometry" />
        </mxCell>
        <mxCell id="4H-aWXCLzXS7zS83u2Xb-13" value="La cardinalidad mínima siempre es cero" style="rounded=0;whiteSpace=wrap;html=1;fontSize=25;" vertex="1" parent="1">
          <mxGeometry x="40" y="400" width="510" height="60" as="geometry" />
        </mxCell>
      </root>
    </mxGraphModel>
  </diagram>
</mxfile>
